<?xml version="1.0" encoding="utf-8"?>
<!-- Generator: Adobe Illustrator 23.1.1, SVG Export Plug-In . SVG Version: 6.00 Build 0)  -->
<svg version="1.1" id="Layer_1" xmlns="http://www.w3.org/2000/svg" xmlns:xlink="http://www.w3.org/1999/xlink" x="0px" y="0px"
	 viewBox="0 0 30 30" style="enable-background:new 0 0 30 30;" xml:space="preserve">
<style type="text/css">
	.st0{fill:#FF4F5B;}
	.st1{fill:#FF8585;}
	.st2{fill:#15140F;}
	.st3{fill:#FFFFFF;}
	.st4{fill:#DCDCDC;}
</style>
<g>
	<g>
		<g>
			<path class="st0" d="M28.9,16.4c0,7.5-6.8,12-14.3,12S1.1,22.4,1.1,14.9S7.9,1.5,13.4,1.6C21.5,1.7,28.9,7.5,28.9,16.4z"/>
		</g>
	</g>
	<g>
		<g>
			<path class="st1" d="M3.6,7C2,9.2,1.1,11.9,1.1,14.9c0,7.1,5.5,12.9,12.4,13.5l4.1-18.6L3.6,7z"/>
		</g>
	</g>
	<g>
		<g>
			<path class="st2" d="M21.7,24.2c-0.1,0-0.2,0-0.4-0.1c-0.5-0.2-0.7-0.8-0.5-1.3l2.7-6.5l-3.7-5.7c-0.3-0.5-0.2-1.1,0.3-1.4
				c0.5-0.3,1.1-0.2,1.4,0.3l4,6.2c0.2,0.3,0.2,0.6,0.1,0.9l-2.8,7C22.5,24,22.1,24.2,21.7,24.2z"/>
		</g>
		<g>
			<path class="st2" d="M26.4,25.2h-9.3v0c0-1.3,1.1-2.4,2.4-2.4H24C25.4,22.7,26.4,23.8,26.4,25.2L26.4,25.2z"/>
		</g>
		<g>
			<g>
				<path class="st3" d="M13.7,7.5l-1.1,0.7c-0.1,0.1-0.5,0.3-0.6,0.4c2,1.8,3.4,4.1,4.4,6.8c0.1-0.1,0.5-0.3,0.6-0.3l1.1-0.7
					c1.9-1.2,2.4-3.7,1.2-5.6l0,0C18.1,6.9,15.6,6.3,13.7,7.5z"/>
			</g>
			<g>
				<path class="st3" d="M18.3,6.7l-0.6,0.4c-0.1,0-0.8,0.6-0.9,0.6l2.3,3.5c0.1,0,0.9-0.5,0.9-0.6l0.6-0.4c1-0.6,1.3-2,0.6-2.9l0,0
					C20.6,6.4,19.3,6.1,18.3,6.7z"/>
			</g>
			<g>
				<path class="st4" d="M16.4,15.4c0,0-1.4-1.1-2.6-3c-1.3-2.1-1.3-2.3-1.7-3.8C12,8.6,15.1,10.4,16.4,15.4z"/>
			</g>
			<g>
				<path class="st3" d="M13.2,10.3c-0.3,0.4-0.5,0.9-0.5,1.5c0,1.2,1,2.1,2.2,2.1c0.1,0,0.4-0.1,0.5-0.1
					C14.8,12.5,14,11.3,13.2,10.3z"/>
			</g>
		</g>
	</g>
</g>
</svg>
