<?xml version="1.0" encoding="utf-8"?>
<!-- Generator: Adobe Illustrator 23.1.1, SVG Export Plug-In . SVG Version: 6.00 Build 0)  -->
<svg version="1.1" id="Layer_1" xmlns="http://www.w3.org/2000/svg" xmlns:xlink="http://www.w3.org/1999/xlink" x="0px" y="0px"
	 viewBox="0 0 19.1 34" style="enable-background:new 0 0 19.1 34;" xml:space="preserve">
<style type="text/css">
	.st0{fill:#DDA158;}
</style>
<g>
	<path class="st0" d="M12,7.2C12,7.2,12,7.2,12,7.2c5.2-1.4,4.3-6.8,4.3-6.8c-5,0.8-5.1,4.7-5,6.3c0,0,0,0-0.1,0.1
		c-0.1,0.1-8,15.1,3.8,26.6c0.1,0.1,0.2,0.1,0.3,0.1s0.2,0,0.3-0.1c0.2-0.2,0.2-0.5,0-0.6C4.4,21.7,11.9,7.3,12,7.2z"/>
	<path class="st0" d="M8.7,11c2-5.7-3.6-7.6-3.6-7.6C3,9.3,8.7,11,8.7,11z"/>
	<path class="st0" d="M10.7,12c5.7,1.7,7.4-4,7.4-4C12.2,6.2,10.7,12,10.7,12z"/>
	<path class="st0" d="M16.7,13c-6.2-0.7-6.5,5.3-6.5,5.3C16.2,19,16.7,13,16.7,13z"/>
	<path class="st0" d="M16.8,18.4c-6.3,0.1-5.7,6.1-5.7,6.1C17.1,24.3,16.8,18.4,16.8,18.4z"/>
	<path class="st0" d="M18.3,22.5c-6.2,0.8-5.1,6.7-5.1,6.7C19.2,28.4,18.3,22.5,18.3,22.5z"/>
	<path class="st0" d="M7.8,16.1c0.6-6-5.2-6.6-5.2-6.6C1.8,15.7,7.8,16.1,7.8,16.1z"/>
	<path class="st0" d="M7.7,20.5c-1.1-5.9-6.9-4.7-6.9-4.7C1.9,21.9,7.7,20.5,7.7,20.5z"/>
	<path class="st0" d="M9,25.3c-2.3-5.5-7.8-3.2-7.8-3.2C3.6,27.9,9,25.3,9,25.3z"/>
	<path class="st0" d="M3.2,28.1c3.2,5.3,8.2,1.9,8.2,1.9C8.2,25,3.2,28.1,3.2,28.1z"/>
</g>
</svg>
