<?xml version="1.0" encoding="utf-8"?>
<!-- Generator: Adobe Illustrator 23.1.1, SVG Export Plug-In . SVG Version: 6.00 Build 0)  -->
<svg version="1.1" id="Layer_1" xmlns="http://www.w3.org/2000/svg" xmlns:xlink="http://www.w3.org/1999/xlink" x="0px" y="0px"
	 viewBox="0 0 19.1 34" style="enable-background:new 0 0 19.1 34;" xml:space="preserve">
<style type="text/css">
	.st0{fill:#DDA158;}
</style>
<g>
	<path class="st0" d="M3.5,32.8c-0.2,0.1-0.2,0.4,0,0.6c0.1,0.1,0.2,0.1,0.3,0.1s0.2,0,0.3-0.1C15.9,21.9,8,6.9,7.9,6.8
		S7.8,6.7,7.8,6.7c0.1-1.6,0-5.5-5-6.3c0,0-0.9,5.4,4.3,6.8l0,0C7.2,7.3,14.7,21.7,3.5,32.8z"/>
	<path class="st0" d="M14,3.4c0,0-5.6,1.9-3.6,7.6C10.4,11,16.1,9.3,14,3.4z"/>
	<path class="st0" d="M1,8c0,0,1.7,5.7,7.4,4C8.4,12,6.9,6.2,1,8z"/>
	<path class="st0" d="M8.9,18.3c0,0-0.3-6-6.5-5.3C2.4,13,2.9,19,8.9,18.3z"/>
	<path class="st0" d="M8,24.5c0,0,0.6-6-5.7-6.1C2.3,18.4,2,24.3,8,24.5z"/>
	<path class="st0" d="M5.9,29.2c0,0,1.1-5.9-5.1-6.7C0.8,22.5-0.1,28.4,5.9,29.2z"/>
	<path class="st0" d="M16.5,9.5c0,0-5.8,0.6-5.2,6.6C11.3,16.1,17.3,15.7,16.5,9.5z"/>
	<path class="st0" d="M18.3,15.8c0,0-5.8-1.2-6.9,4.7C11.4,20.5,17.2,21.9,18.3,15.8z"/>
	<path class="st0" d="M17.9,22.1c0,0-5.5-2.3-7.8,3.2C10.1,25.3,15.5,27.9,17.9,22.1z"/>
	<path class="st0" d="M7.7,30c0,0,5,3.4,8.2-1.9C15.9,28.1,10.9,25,7.7,30z"/>
</g>
</svg>
