<?xml version="1.0" encoding="utf-8"?>
<!-- Generator: Adobe Illustrator 23.1.1, SVG Export Plug-In . SVG Version: 6.00 Build 0)  -->
<svg version="1.1" id="Layer_1" xmlns="http://www.w3.org/2000/svg" xmlns:xlink="http://www.w3.org/1999/xlink" x="0px" y="0px"
	 viewBox="0 0 25 25" style="enable-background:new 0 0 25 25;" xml:space="preserve">
<style type="text/css">
	.st0{fill:#404040;}
</style>
<path class="st0" d="M22.6,19.1l-2-2v-6.8c0,0,0,0,0,0c-0.4-5-4.2-6.6-5.4-7.1c-0.1-1-0.4-1.7-1-2.2c-0.7-0.7-1.6-0.7-1.8-0.7
	c-0.2,0-1.1,0-1.8,0.7c-0.6,0.5-0.9,1.3-1,2.2c-1.2,0.4-5,2.1-5.4,7.1c0,0,0,0,0,0V17l-2,2C2,19.4,1.9,20,2.1,20.4
	c0.2,0.5,0.6,0.8,1.1,0.8h5.6c0,2,1.7,3.6,3.6,3.6s3.6-1.6,3.6-3.6h5.6c0.5,0,0.9-0.3,1.1-0.8C23.1,20,23,19.4,22.6,19.1z
	 M12.5,23.7c-1.4,0-2.5-1.1-2.6-2.5h5.2C15,22.6,13.9,23.7,12.5,23.7z M21.9,20c0,0-0.1,0.1-0.2,0.1H3.2c-0.1,0-0.1-0.1-0.2-0.1
	c0,0,0-0.1,0-0.2l2.1-2.2c0.1-0.1,0.1-0.2,0.1-0.4v-7c0.4-5.1,4.8-6.2,5-6.2c0.2-0.1,0.4-0.3,0.4-0.5c0-0.8,0.2-1.5,0.6-1.8
	c0.5-0.4,1-0.4,1.1-0.4c0,0,0,0,0.1,0c0,0,0.6,0,1,0.4c0.4,0.4,0.6,1,0.7,1.9c0,0.2,0.2,0.4,0.4,0.5c0,0,4.6,1.1,5,6.2v7
	c0,0.1,0.1,0.3,0.1,0.4l2.1,2.2C22,19.9,21.9,20,21.9,20z"/>
</svg>
