<?xml version="1.0" encoding="utf-8"?>
<!-- Generator: Adobe Illustrator 23.1.1, SVG Export Plug-In . SVG Version: 6.00 Build 0)  -->
<svg version="1.1" id="Layer_1" xmlns="http://www.w3.org/2000/svg" xmlns:xlink="http://www.w3.org/1999/xlink" x="0px" y="0px"
	 viewBox="0 0 169 34" style="enable-background:new 0 0 169 34;" xml:space="preserve">
<style type="text/css">
	.st0{fill:#666666;}
	.st1{fill:#E7485C;}
</style>
<g>
	<g>
		<g>
			<path class="st0" d="M149.9,30.6c-0.9-0.9-0.9-2.3,0-3.1c0.9-0.9,2.3-0.9,3.1,0c2.5,2.5,6.7,3.7,11-0.1c0.9-0.8,2.3-0.7,3.1,0.2
				c0.8,0.9,0.7,2.3-0.2,3.1C161.9,35,153.8,34.4,149.9,30.6z"/>
		</g>
		<g>
			<path class="st0" d="M158.5,26.5c-0.6,0-1.1-0.2-1.6-0.6c-0.9-0.9-0.9-2.3,0-3.1l4.8-4.8L155,3.5c-0.5-1.1,0-2.4,1.1-2.9
				c1.1-0.5,2.4,0,2.9,1.1l7.4,15.8c0.4,0.8,0.2,1.8-0.4,2.5l-5.9,5.9C159.6,26.3,159,26.5,158.5,26.5z"/>
		</g>
		<path class="st1" d="M140.5,2.3c4.8-2.3,9.9-1.5,11.5,1.9c1.6,3.3-1,7.9-5.8,10.2L140.5,2.3z"/>
	</g>
	<g>
		<g>
			<path class="st0" d="M19,24.1c0,3.3-2.1,5.9-7.7,5.9c-1.8,0-6.1,0-7.7,0c-1.1,0-2.3-0.4-2.3-2.5V10.9c0-2,1.3-2.5,2.5-2.5
				c2.1,0,4.2,0,6.7,0c4.8,0,6.9,2.6,6.9,5.3c0,2.3-1.5,4.5-4.6,4.8c0,0,1.1,0,1.1,0C17.4,18.9,19,21.5,19,24.1z M9.5,12
				c-1.3,0-2.2,0-3,0c0,1,0,3.9,0,4.9h2C13.1,16.9,13.9,12,9.5,12z M6.5,20.6V26c0.5,0,1.6,0,3.2,0c4.9,0,5.1-5.4,0.2-5.4H6.5z"/>
			<path class="st0" d="M21,21.6c0-5.8,3.9-8.5,8.3-8.5c4.4,0,8.3,2.7,8.3,8.5c0,6-3.9,8.7-8.3,8.7C24.9,30.3,21,27.6,21,21.6z
				 M32.3,21.8c0-3.6-1.2-4.8-3-4.8s-3,1.2-3,4.8c0,3.7,1.2,4.7,3,4.7S32.3,25.4,32.3,21.8z"/>
			<path class="st0" d="M39.6,21.6c0-5.8,3.9-8.5,8.3-8.5c4.4,0,8.3,2.7,8.3,8.5c0,6-3.9,8.7-8.3,8.7C43.5,30.3,39.6,27.6,39.6,21.6
				z M50.9,21.8c0-3.6-1.2-4.8-3-4.8c-1.8,0-3,1.2-3,4.8c0,3.7,1.2,4.7,3,4.7C49.7,26.5,50.9,25.4,50.9,21.8z"/>
			<path class="st0" d="M63.7,19.1h1.1c0.8,0,2.9-3.1,3.9-5c0.2-0.3,0.3-0.4,0.5-0.4h4.7c0.2,0,0.3,0.1,0.3,0.3
				c0,0.6-3.6,6.2-4.9,6.9c0.5,0.3,1,0.9,1.6,1.9l2.1,3.5c0.7,0,1.7-0.1,2.2-0.1c0.2,0,0.4,0.2,0.4,0.4v2.6c0,0.3-0.3,0.6-0.5,0.6
				h-5.8c-0.1,0-0.3-0.1-0.4-0.4l-2.7-5.4c-0.5-1-0.9-1.2-1.4-1.2h-1v6.3c0,0.5-0.2,0.7-0.7,0.7h-3.7c-0.5,0-0.7-0.1-0.7-0.7V9.5
				c-1.2,0-1.6,0.1-2,0.1C56.2,9.6,56,9.2,56,8c0-1.3,0.3-2,0.9-2h6.3c0.5,0,0.7,0.2,0.7,0.7C63.9,7.2,63.8,12.9,63.7,19.1z"/>
			<path class="st0" d="M77.5,28.9c-0.2-0.2-0.3-0.4-0.3-0.6c0-0.2,0-0.3,0.1-0.5l0.9-1.9c0.2-0.4,0.4-0.7,0.7-0.7
				c0.2,0,0.4,0.1,0.7,0.3c0.9,0.6,2.3,1.1,4.1,1.1c1.6,0,2.3-0.6,2.3-1.4c0-0.7-0.5-1.3-2.9-1.8c-4-0.7-5.4-2.3-5.4-4.8
				c0-3.2,2.6-5.5,6.9-5.5c5.7,0,6.4,2.3,6.4,3.3c0,1.1-1.6,2.1-2.6,2.1c-0.4,0-0.6-0.1-0.7-0.4c-0.6-0.8-1.3-1.6-3-1.6
				c-1.2,0-1.9,0.6-1.9,1.4c0,0.9,0.7,1.4,2.7,1.8c4.5,0.8,5.8,2.5,5.8,5.1c0,3.4-2.7,5.4-7.7,5.4C80.6,30.3,78.6,29.7,77.5,28.9z"
				/>
			<path class="st0" d="M105.7,13.6c0.3,0,0.5,0.2,0.5,0.5v2.7c0,0.3-0.3,0.5-0.6,0.5h-4.5c0,1.4-0.1,3-0.1,3.8v3.1
				c0,1.2,0.5,1.5,1.6,1.5c0.9,0,1.6-0.3,2.1-0.7c0.2-0.2,0.4-0.3,0.6-0.3c0.8,0,1.3,2.8,1.3,3.5c0,0.4-0.2,0.7-0.3,0.9
				c-0.4,0.4-2,1.1-4.6,1.1c-3.3,0-5.7-0.8-5.7-5.1v-8c-1.3,0-2.5,0.1-2.9,0.1c-0.3,0-0.5-0.1-0.5-0.4v-2.7c0-0.3,0.3-0.6,0.6-0.6
				H96v-3.4c0-0.8,0.1-1,0.7-1h3.9c0.5,0,0.6,0.1,0.6,0.6c0,0.9-0.2,2.2-0.2,3.8C103.4,13.7,105.4,13.6,105.7,13.6z"/>
			<path class="st0" d="M117.2,26.4c1.4,0,2.5-0.5,3.4-1.1c0.1-0.1,0.3-0.2,0.4-0.2c0.2,0,0.3,0.1,0.4,0.3l1.3,1.7
				c0.2,0.3,0.3,0.5,0.3,0.7c0,0.2-0.1,0.3-0.2,0.5c-1,1.1-3,2.1-6.2,2.1c-4.2,0-8.2-2.3-8.2-8.3c0-5,3.3-8.9,8.7-8.9
				c5.3,0,6.6,3.7,6.6,5.7c0,1.7-0.5,2.1-2,2.5l-8,2.2C113.9,25.6,115.5,26.4,117.2,26.4z M119,18.5c-0.1-1.1-0.6-1.9-2.1-1.9
				c-1.7,0-3.2,1.1-3.3,3.4L119,18.5z"/>
			<path class="st0" d="M131.6,17.9c0.9-2.9,2.7-4.7,5.9-4.7c2.7,0,3.9,1.4,3.9,3.6c0,1.9-1.3,2.5-2.8,2.5c-0.9,0-1.2-0.3-1.4-1
				c-0.1-0.5-0.4-0.8-1.2-0.8c-1.5,0-2.5,2-2.5,4.7v4.2c1,0,1.9-0.1,2.3-0.1c0.3,0,0.4,0.1,0.4,0.4v2.6c0,0.4-0.4,0.6-1.9,0.6h-5.4
				c-0.4,0-0.5-0.1-0.5-0.6v-6c0-2-0.4-4.1-1-6c-1,0-1.6,0.1-1.9,0.1c-0.4,0-0.7-0.5-0.7-1.7c0-1.3,0.3-2,0.9-2h4.1
				c0.4,0,0.6,0.1,0.7,0.5C131,15,131.5,16.8,131.6,17.9z"/>
		</g>
	</g>
</g>
</svg>
