<?xml version="1.0" encoding="utf-8"?>
<!-- Generator: Adobe Illustrator 23.1.1, SVG Export Plug-In . SVG Version: 6.00 Build 0)  -->
<svg version="1.1" id="Layer_1" xmlns="http://www.w3.org/2000/svg" xmlns:xlink="http://www.w3.org/1999/xlink" x="0px" y="0px"
	 viewBox="0 0 134.8 89.7" style="enable-background:new 0 0 134.8 89.7;" xml:space="preserve">
<style type="text/css">
	.st0{fill:#00237D;}
	.st1{fill:none;}
	.st2{fill:#FFFFFF;}
	.st3{fill:#CF142B;}
</style>
<g>
	<g>
		<rect x="0" y="0" class="st0" width="134.8" height="89.7"/>
	</g>
	<rect x="0" y="0" class="st1" width="134.8" height="89.7"/>
	<polygon class="st2" points="134.8,0 128,0 76.2,32.9 76.2,0 58.7,0 58.7,32.9 6.9,0 0,0 0,8.3 43.7,36 0,36 0,53.5 43.7,53.5 
		0,81.2 0,89.7 6.5,89.7 58.7,56.6 58.7,89.7 76.2,89.7 76.2,56.6 128.4,89.7 134.8,89.7 134.8,81.1 91.3,53.5 134.8,53.5 134.8,36 
		91.3,36 134.8,8.3 	"/>
	<rect x="0" y="0" class="st1" width="134.8" height="89.7"/>
	<polygon class="st3" points="134.8,0 133.5,0 73.3,38.2 73.3,0 61.7,0 61.7,38.2 1.5,0 0,0 0,4.8 53.9,39 0,39 0,50.6 53.8,50.6 
		0,84.7 0,89.7 1.1,89.7 61.7,51.2 61.7,89.7 73.3,89.7 73.3,51.3 133.9,89.7 134.8,89.7 134.8,84.6 81.2,50.6 134.8,50.6 134.8,39 
		81,39 134.8,4.9 	"/>
</g>
</svg>
